<svg xmlns="http://www.w3.org/2000/svg" style="display: none;">

    <symbol id="icon-add" viewBox="0 0 24 24">
        <path fill="#007bff" fill-rule="evenodd"
            d="M13 13v7a1 1 0 0 1-2 0v-7H4a1 1 0 0 1 0-2h7V4a1 1 0 0 1 2 0v7h7a1 1 0 0 1 0 2z" />
    </symbol>

    <symbol id="icon-mic" viewBox="0 0 24 24">
        <g fill="none" stroke="#6d6d6d" stroke-linecap="round" stroke-linejoin="round" stroke-width="2">
            <path fill="#6d6d6d" d="M9 6a3 3 0 0 1 3-3v0a3 3 0 0 1 3 3v5a3 3 0 0 1-3 3v0a3 3 0 0 1-3-3z" />
            <path d="M12 18a7 7 0 0 1-7-7v0v-1m7 8a7 7 0 0 0 7-7v0v-1m-7 8v3" />
        </g>
    </symbol>

    <symbol id="icon-arrow-top" viewBox="0 0 24 24">
        <g fill="none">
            <path
                d="M24 0v24H0V0zM12.593 23.258l-.011.002l-.071.035l-.02.004l-.014-.004l-.071-.035q-.016-.005-.024.005l-.004.01l-.017.428l.005.02l.01.013l.104.074l.015.004l.012-.004l.104-.074l.012-.016l.004-.017l-.017-.427q-.004-.016-.017-.018m.265-.113l-.013.002l-.185.093l-.01.01l-.003.011l.018.43l.005.012l.008.007l.201.093q.019.005.029-.008l.004-.014l-.034-.614q-.005-.019-.02-.022m-.715.002a.02.02 0 0 0-.027.006l-.006.014l-.034.614q.001.018.017.024l.015-.002l.201-.093l.01-.008l.004-.011l.017-.43l-.003-.012l-.01-.01z" />
            <path fill="#000000"
                d="M12.707 3.636a1 1 0 0 0-1.414 0L5.636 9.293a1 1 0 1 0 1.414 1.414L11 6.757V20a1 1 0 1 0 2 0V6.757l3.95 3.95a1 1 0 0 0 1.414-1.414z" />
        </g>
    </symbol>

    <symbol id="icon-home" viewBox="0 0 24 24">
        <g fill="none" stroke="#6d6d6d" stroke-linecap="round" stroke-linejoin="round" stroke-width="2">
            <path d="M5 12H3l9-9l9 9h-2M5 12v7a2 2 0 0 0 2 2h10a2 2 0 0 0 2-2v-7" />
            <path d="M9 21v-6a2 2 0 0 1 2-2h2a2 2 0 0 1 2 2v6" />
        </g>
    </symbol>

    <symbol id="icon-assistant" viewBox="0 0 24 24">
         <path fill="#00000"
            d="M22 14h-1c0-3.87-3.13-7-7-7h-1V5.73A2 2 0 1 0 10 4c0 .74.4 1.39 1 1.73V7h-1c-3.87 0-7 3.13-7 7H2c-.55 0-1 .45-1 1v3c0 .55.45 1 1 1h1v1a2 2 0 0 0 2 2h14c1.11 0 2-.89 2-2v-1h1c.55 0 1-.45 1-1v-3c0-.55-.45-1-1-1M8.68 17.04L7.5 15.86l-1.18 1.18l-1.18-1.18L7.5 13.5l2.36 2.36zm9 0l-1.18-1.18l-1.18 1.18l-1.18-1.18l2.36-2.36l2.36 2.36z" />
    </symbol>

    <symbol id="icon-state" viewBox="0 0 24 24">
         <path fill="#6d6d6d" fill-rule="evenodd"
            d="M11.823 4.771L12 4.95l.177-.178a5.754 5.754 0 0 1 8.138 8.138l-6.724 6.723a2.25 2.25 0 0 1-3.182 0L3.685 12.91a5.754 5.754 0 1 1 8.138-8.138m-1.061 1.06a4.254 4.254 0 1 0-6.016 6.017l6.724 6.724a.75.75 0 0 0 1.06 0l6.724-6.724a4.254 4.254 0 0 0-6.016-6.016l-.708.708a.75.75 0 0 1-1.06 0z"
            clip-rule="evenodd" />
    </symbol>

    <symbol id="icon-record" viewBox="0 0 24 24">
        <g fill="none" stroke="#6d6d6d" stroke-linecap="round" stroke-linejoin="round"
            stroke-width="1.5">
            <path
                d="M2 19V9a2 2 0 0 1 2-2h.5a2 2 0 0 0 1.6-.8l2.22-2.96A.6.6 0 0 1 8.8 3h6.4a.6.6 0 0 1 .48.24L17.9 6.2a2 2 0 0 0 1.6.8h.5a2 2 0 0 1 2 2v10a2 2 0 0 1-2 2H4a2 2 0 0 1-2-2" />
            <path d="M12 17a4 4 0 1 0 0-8a4 4 0 0 0 0 8" />
        </g>
    </symbol>

     <symbol id="icon-profile" viewBox="0 0 24 24">
       <g fill="none" stroke="#6d6d6d" stroke-width="2">
        <path stroke-linejoin="round"
            d="M4 18a4 4 0 0 1 4-4h8a4 4 0 0 1 4 4a2 2 0 0 1-2 2H6a2 2 0 0 1-2-2Z" />
        <circle cx="12" cy="7" r="3" />
    </g>
    </symbol>

</svg>